<svg width="19" height="19" viewBox="0 0 19 19" fill="none" xmlns="http://www.w3.org/2000/svg">
<g clip-path="url(#clip0_156_215)">
<path d="M7.125 14.25C7.125 14.8799 7.37522 15.484 7.82062 15.9294C8.26602 16.3748 8.87011 16.625 9.5 16.625C10.1299 16.625 10.734 16.3748 11.1794 15.9294C11.6248 15.484 11.875 14.8799 11.875 14.25" stroke="#5B5858" stroke-linecap="round" stroke-linejoin="round"/>
<path d="M4.15634 7.71875C4.15634 6.3015 4.71934 4.9423 5.72149 3.94015C6.72364 2.938 8.08284 2.375 9.50009 2.375C10.9173 2.375 12.2765 2.938 13.2787 3.94015C14.2808 4.9423 14.8438 6.3015 14.8438 7.71875C14.8438 10.3773 15.4599 12.5133 15.9497 13.3594C16.0017 13.4495 16.0292 13.5517 16.0292 13.6557C16.0293 13.7598 16.0021 13.862 15.9502 13.9522C15.8984 14.0424 15.8237 14.1174 15.7337 14.1697C15.6438 14.2219 15.5416 14.2496 15.4376 14.25H3.56259C3.45867 14.2494 3.35673 14.2215 3.26697 14.1691C3.1772 14.1168 3.10276 14.0417 3.05107 13.9516C2.99938 13.8614 2.97225 13.7593 2.97241 13.6554C2.97257 13.5514 3 13.4494 3.05197 13.3594C3.54107 12.5133 4.15634 10.3765 4.15634 7.71875Z" stroke="#5B5858" stroke-linecap="round" stroke-linejoin="round"/>
</g>
<defs>
<clipPath id="clip0_156_215">
<rect width="19" height="19" fill="white"/>
</clipPath>
</defs>
</svg>
