<svg width="381" height="357" viewBox="0 0 381 357" fill="none" xmlns="http://www.w3.org/2000/svg">
<g clip-path="url(#clip0_161_188)">
<path d="M270.038 327.401H96.2536C92.1263 327.396 88.1695 325.724 85.2517 322.752C82.3338 319.779 80.6932 315.749 80.69 311.546V243.519C80.3302 243.937 79.9537 244.349 79.5659 244.75V311.546C79.5699 316.053 81.3292 320.373 84.4577 323.56C87.5862 326.747 91.8285 328.54 96.2536 328.546H270.527C270.359 328.168 270.196 327.785 270.038 327.401ZM80.69 75.9548C80.6932 71.7517 82.3338 67.7217 85.2517 64.7492C88.1695 61.7767 92.1263 60.1046 96.2536 60.0998H154.158C154.051 59.7163 153.949 59.3386 153.854 58.9551H96.2536C91.8285 58.9607 87.5862 60.7537 84.4577 63.9407C81.3292 67.1277 79.5699 71.4484 79.5659 75.9548V180.242C79.9537 180.643 80.3248 181.055 80.69 181.473V75.9548ZM314.037 89.3256L277.728 60.0369C276.861 59.337 275.787 58.9558 274.681 58.9551H242.368C242.278 59.3386 242.177 59.7221 242.07 60.0998H274.681C275.533 60.1019 276.36 60.3941 277.031 60.9298L313.34 90.2242C313.685 90.501 313.963 90.8541 314.154 91.2567C314.345 91.6594 314.443 92.101 314.442 92.5481V263.02C314.818 263.031 315.195 263.06 315.566 263.089V92.5481C315.568 91.928 315.431 91.3156 315.166 90.7572C314.902 90.1989 314.515 89.7093 314.037 89.3256Z" fill="#3F3D56"/>
<path d="M313.557 90.8377H284.259C283.2 90.8377 282.152 90.6252 281.173 90.2125C280.195 89.7998 279.306 89.1949 278.557 88.4323C277.808 87.6697 277.214 86.7643 276.809 85.768C276.403 84.7716 276.195 83.7037 276.195 82.6252V60.589C276.195 60.4925 276.222 60.398 276.272 60.3162C276.322 60.2345 276.394 60.1689 276.479 60.1269C276.565 60.0849 276.66 60.0682 276.754 60.0788C276.848 60.0893 276.938 60.1267 277.012 60.1866L313.87 89.9221C313.952 89.9882 314.012 90.0788 314.041 90.1811C314.071 90.2834 314.068 90.3925 314.033 90.4931C313.999 90.5938 313.935 90.681 313.849 90.7428C313.764 90.8045 313.662 90.8377 313.557 90.8377Z" fill="#E6E6E6"/>
<path d="M313.557 91.41H284.259C281.972 91.4073 279.78 90.4809 278.162 88.834C276.545 87.1871 275.635 84.9541 275.633 82.625V60.589C275.633 60.3849 275.689 60.185 275.796 60.0121C275.902 59.8392 276.054 59.7004 276.235 59.6115C276.415 59.5227 276.616 59.4874 276.816 59.5097C277.015 59.532 277.204 59.611 277.361 59.7377L314.219 89.4735C314.393 89.6134 314.519 89.8049 314.581 90.0213C314.643 90.2378 314.637 90.4685 314.564 90.6814C314.492 90.8942 314.355 91.0788 314.175 91.2094C313.995 91.3399 313.779 91.41 313.557 91.41ZM276.757 60.7111V82.625C276.759 84.6506 277.55 86.5926 278.957 88.0249C280.363 89.4573 282.27 90.2629 284.259 90.2652H313.391L276.757 60.7111Z" fill="#3F3D56"/>
<path d="M255.399 128.82H169.21C168.141 128.82 167.115 128.388 166.359 127.618C165.603 126.848 165.178 125.803 165.178 124.714C165.178 123.625 165.603 122.581 166.359 121.811C167.115 121.041 168.141 120.608 169.21 120.608H255.399C256.469 120.608 257.494 121.041 258.251 121.811C259.007 122.581 259.432 123.625 259.432 124.714C259.432 125.803 259.007 126.848 258.251 127.618C257.494 128.388 256.469 128.82 255.399 128.82Z" fill="#CCCCCC"/>
<path d="M272.032 142.679H169.21C168.141 142.679 167.115 142.246 166.359 141.476C165.603 140.706 165.178 139.662 165.178 138.573C165.178 137.484 165.603 136.439 166.359 135.669C167.115 134.899 168.141 134.467 169.21 134.467H272.032C273.102 134.467 274.127 134.899 274.884 135.669C275.64 136.439 276.065 137.484 276.065 138.573C276.065 139.662 275.64 140.706 274.884 141.476C274.127 142.246 273.102 142.679 272.032 142.679Z" fill="#CCCCCC"/>
<path d="M255.399 190.928H169.21C168.141 190.928 167.115 190.495 166.359 189.725C165.603 188.955 165.178 187.91 165.178 186.821C165.178 185.732 165.603 184.688 166.359 183.918C167.115 183.148 168.141 182.715 169.21 182.715H255.399C256.469 182.715 257.494 183.148 258.251 183.918C259.007 184.688 259.432 185.732 259.432 186.821C259.432 187.91 259.007 188.955 258.251 189.725C257.494 190.495 256.469 190.928 255.399 190.928Z" fill="#CCCCCC"/>
<path d="M272.032 204.786H169.21C168.141 204.786 167.115 204.354 166.359 203.584C165.603 202.813 165.178 201.769 165.178 200.68C165.178 199.591 165.603 198.547 166.359 197.776C167.115 197.006 168.141 196.574 169.21 196.574H272.032C273.102 196.574 274.127 197.006 274.884 197.776C275.64 198.547 276.065 199.591 276.065 200.68C276.065 201.769 275.64 202.813 274.884 203.584C274.127 204.354 273.102 204.786 272.032 204.786Z" fill="#CCCCCC"/>
<path d="M255.399 253.035H169.21C168.68 253.035 168.156 252.928 167.667 252.722C167.178 252.516 166.733 252.213 166.359 251.832C165.984 251.451 165.687 250.998 165.485 250.5C165.282 250.001 165.178 249.467 165.178 248.928C165.178 248.389 165.282 247.855 165.485 247.357C165.687 246.859 165.984 246.406 166.359 246.025C166.733 245.643 167.178 245.341 167.667 245.135C168.156 244.928 168.68 244.822 169.21 244.822H255.399C256.469 244.822 257.494 245.255 258.251 246.025C259.007 246.795 259.432 247.839 259.432 248.928C259.432 250.017 259.007 251.062 258.251 251.832C257.494 252.602 256.469 253.035 255.399 253.035Z" fill="#CCCCCC"/>
<path d="M272.032 266.893H169.21C168.68 266.893 168.156 266.787 167.667 266.581C167.178 266.374 166.733 266.072 166.359 265.69C165.984 265.309 165.687 264.857 165.485 264.358C165.282 263.86 165.178 263.326 165.178 262.787C165.178 262.248 165.282 261.714 165.485 261.216C165.687 260.717 165.984 260.265 166.359 259.883C166.733 259.502 167.178 259.2 167.667 258.993C168.156 258.787 168.68 258.681 169.21 258.681H272.032C272.562 258.681 273.086 258.787 273.575 258.993C274.065 259.2 274.509 259.502 274.884 259.883C275.258 260.265 275.555 260.717 275.758 261.216C275.96 261.714 276.065 262.248 276.065 262.787C276.065 263.326 275.96 263.86 275.758 264.358C275.555 264.857 275.258 265.309 274.884 265.69C274.509 266.072 274.065 266.374 273.575 266.581C273.086 266.787 272.562 266.893 272.032 266.893Z" fill="#CCCCCC"/>
<path d="M133.319 146.157C141.19 146.157 147.57 139.659 147.57 131.643C147.57 123.628 141.19 117.13 133.319 117.13C125.448 117.13 119.067 123.628 119.067 131.643C119.067 139.659 125.448 146.157 133.319 146.157Z" fill="#913276"/>
<path d="M131.907 137.18C131.586 137.181 131.274 137.075 131.017 136.879L131.001 136.867L127.652 134.258C127.497 134.137 127.366 133.986 127.268 133.813C127.17 133.641 127.106 133.45 127.08 133.253C127.055 133.055 127.067 132.855 127.118 132.662C127.168 132.47 127.256 132.289 127.375 132.131C127.494 131.973 127.642 131.84 127.812 131.741C127.981 131.641 128.168 131.576 128.362 131.55C128.556 131.525 128.753 131.538 128.942 131.59C129.131 131.641 129.308 131.73 129.463 131.852L131.633 133.546L136.759 126.735C136.878 126.577 137.026 126.445 137.195 126.345C137.365 126.246 137.551 126.181 137.745 126.155C137.939 126.129 138.136 126.142 138.324 126.193C138.513 126.245 138.69 126.334 138.845 126.455L138.814 126.5L138.846 126.455C139.159 126.7 139.364 127.061 139.416 127.459C139.467 127.858 139.361 128.261 139.122 128.58L133.092 136.587C132.952 136.772 132.773 136.921 132.568 137.023C132.362 137.126 132.137 137.179 131.908 137.178L131.907 137.18Z" fill="white"/>
<path d="M133.319 208.264C141.19 208.264 147.57 201.766 147.57 193.751C147.57 185.735 141.19 179.237 133.319 179.237C125.448 179.237 119.067 185.735 119.067 193.751C119.067 201.766 125.448 208.264 133.319 208.264Z" fill="#E6E6E6"/>
<path d="M131.906 199.287C131.586 199.287 131.273 199.182 131.017 198.986L131.001 198.974L127.652 196.365C127.338 196.12 127.133 195.759 127.082 195.36C127.03 194.962 127.136 194.559 127.376 194.239C127.616 193.92 127.971 193.712 128.362 193.659C128.754 193.606 129.15 193.714 129.463 193.959L131.632 195.653L136.759 188.842C136.878 188.684 137.026 188.552 137.195 188.452C137.364 188.353 137.551 188.288 137.745 188.262C137.938 188.236 138.135 188.249 138.324 188.3C138.513 188.352 138.69 188.44 138.845 188.561L138.813 188.607L138.846 188.562C139.159 188.807 139.364 189.168 139.415 189.566C139.467 189.965 139.361 190.367 139.121 190.687L133.091 198.694C132.952 198.878 132.773 199.028 132.567 199.13C132.362 199.233 132.136 199.286 131.908 199.285L131.906 199.287Z" fill="white"/>
<path d="M133.319 270.371C141.19 270.371 147.57 263.873 147.57 255.858C147.57 247.842 141.19 241.344 133.319 241.344C125.448 241.344 119.067 247.842 119.067 255.858C119.067 263.873 125.448 270.371 133.319 270.371Z" fill="#E6E6E6"/>
<path d="M131.907 261.394C131.586 261.395 131.274 261.289 131.017 261.093L131.001 261.081L127.652 258.472C127.497 258.351 127.366 258.2 127.268 258.027C127.17 257.855 127.106 257.665 127.08 257.467C127.055 257.27 127.067 257.069 127.118 256.876C127.168 256.684 127.256 256.503 127.375 256.345C127.494 256.187 127.642 256.054 127.812 255.955C127.981 255.855 128.168 255.791 128.362 255.765C128.556 255.739 128.753 255.752 128.942 255.804C129.131 255.855 129.308 255.944 129.463 256.066L131.633 257.76L136.759 250.949C136.878 250.791 137.026 250.659 137.195 250.559C137.365 250.46 137.551 250.395 137.745 250.369C137.939 250.343 138.136 250.356 138.324 250.407C138.513 250.459 138.69 250.548 138.845 250.669L138.814 250.714L138.846 250.669C139.159 250.914 139.364 251.275 139.416 251.673C139.467 252.072 139.361 252.475 139.122 252.794L133.092 260.801C132.952 260.986 132.773 261.135 132.568 261.237C132.362 261.34 132.137 261.393 131.908 261.392L131.907 261.394Z" fill="white"/>
<path d="M333.696 351.627C332.892 352.055 332.074 352.46 331.242 352.842C330.484 353.191 329.715 353.518 328.933 353.825C328.648 353.936 328.357 354.047 328.067 354.158C325.77 355.006 323.411 355.668 321.011 356.139C319.823 356.377 318.619 356.563 317.4 356.699C316.394 356.815 315.377 356.898 314.35 356.947C313.618 356.984 312.886 357 312.15 357C309.232 357.001 306.321 356.724 303.455 356.171C302.707 356.033 301.976 355.869 301.244 355.69C297.706 354.826 294.28 353.539 291.04 351.854C290.749 351.706 290.458 351.548 290.168 351.394C289.737 351.162 289.317 350.919 288.897 350.665C289.099 350.38 289.317 350.1 289.54 349.825C291.968 346.762 295.002 344.253 298.445 342.464C301.889 340.674 305.664 339.644 309.524 339.439C313.385 339.235 317.245 339.861 320.852 341.277C324.459 342.694 327.732 344.868 330.459 347.659C331.405 348.626 332.282 349.661 333.084 350.755C333.296 351.04 333.499 351.331 333.696 351.627Z" fill="#913276"/>
<path d="M313.185 328.419C325.767 328.419 335.966 318.033 335.966 305.22C335.966 292.408 325.767 282.021 313.185 282.021C300.604 282.021 290.405 292.408 290.405 305.22C290.405 318.033 300.604 328.419 313.185 328.419Z" fill="#2F2E41"/>
<path d="M319.244 328.452C327.461 323.878 330.48 313.387 325.989 305.019C321.497 296.652 311.195 293.577 302.979 298.151C294.762 302.725 291.743 313.216 296.234 321.583C300.726 329.951 311.028 333.026 319.244 328.452Z" fill="#A0616A"/>
<path d="M328.927 302.441C325.053 305.16 320.454 306.608 315.749 306.589C317.427 307.774 319.338 308.574 321.35 308.935C315.093 310.302 308.627 310.339 302.356 309.044C300.962 308.816 299.617 308.346 298.38 307.653C297.764 307.303 297.227 306.824 296.804 306.248C296.381 305.672 296.082 305.012 295.926 304.311C295.509 301.886 297.364 299.684 299.292 298.2C302.243 295.961 305.646 294.42 309.255 293.685C312.863 292.951 316.587 293.043 320.157 293.954C322.487 294.567 324.822 295.604 326.336 297.51C327.85 299.416 328.298 302.355 326.856 304.317L328.927 302.441Z" fill="#2F2E41"/>
<path d="M315.566 262.024C315.195 261.996 314.818 261.973 314.441 261.955C313.683 261.915 312.918 261.898 312.148 261.898C304.491 261.898 296.952 263.816 290.195 267.482C283.437 271.149 277.669 276.451 273.398 282.922C269.126 289.394 266.483 296.835 265.702 304.592C264.92 312.348 266.023 320.181 268.914 327.401C269.066 327.785 269.223 328.168 269.392 328.546C273.255 337.457 279.694 344.957 287.85 350.045L288.148 350.222C288.401 350.377 288.648 350.526 288.896 350.663C289.317 350.92 289.739 351.161 290.166 351.396C290.458 351.55 290.75 351.705 291.037 351.853C294.278 353.539 297.705 354.826 301.244 355.688C301.975 355.872 302.706 356.032 303.453 356.169C306.32 356.722 309.231 357 312.148 356.999C312.885 356.999 313.615 356.982 314.352 356.948C315.375 356.902 316.392 356.816 317.398 356.701C318.618 356.564 319.822 356.377 321.012 356.141C323.41 355.669 325.769 355.007 328.066 354.16C328.358 354.046 328.651 353.937 328.932 353.822C329.718 353.519 330.483 353.193 331.242 352.844C332.073 352.46 332.892 352.054 333.698 351.624C341.773 347.316 348.448 340.715 352.915 332.621C352.935 332.578 352.958 332.536 352.982 332.496C356.785 325.516 358.801 317.674 358.844 309.692C358.887 301.71 356.955 293.845 353.227 286.824C349.499 279.803 344.095 273.85 337.513 269.516C330.931 265.182 323.383 262.605 315.566 262.024ZM357.001 318.175C356.099 322.976 354.454 327.601 352.128 331.877C352.089 331.952 352.049 332.026 352.01 332.095C347.635 340.07 341.054 346.559 333.085 350.754C332.287 351.178 331.479 351.575 330.663 351.945C329.982 352.254 329.286 352.552 328.583 352.826C328.291 352.941 327.987 353.061 327.689 353.164C325.704 353.902 323.67 354.495 321.602 354.939C320.069 355.272 318.519 355.521 316.959 355.683C315.998 355.791 315.026 355.866 314.042 355.9C313.413 355.929 312.783 355.946 312.148 355.946C309.325 355.947 306.508 355.679 303.734 355.145C302.046 354.829 300.377 354.413 298.737 353.897C296.239 353.113 293.811 352.111 291.481 350.903C291.211 350.76 290.941 350.617 290.677 350.468C290.295 350.262 289.913 350.05 289.542 349.827C289.261 349.667 288.98 349.495 288.704 349.329C288.541 349.232 288.384 349.135 288.221 349.032C280.457 344.144 274.297 337.012 270.527 328.546C270.359 328.168 270.196 327.785 270.038 327.401C267.134 320.335 265.989 312.648 266.705 305.023C267.421 297.397 269.976 290.071 274.143 283.693C278.31 277.316 283.96 272.086 290.59 268.469C297.221 264.851 304.626 262.958 312.148 262.957C312.918 262.957 313.683 262.974 314.441 263.02C314.818 263.032 315.195 263.06 315.566 263.089C321.979 263.584 328.218 265.452 333.874 268.572C339.529 271.691 344.474 275.991 348.386 281.191C352.297 286.391 355.086 292.373 356.571 298.746C358.055 305.119 358.202 311.74 357.001 318.175Z" fill="#3F3D56"/>
<path d="M301.649 282.342C301.404 279.717 298.247 278.101 295.777 278.894C293.308 279.687 291.687 282.219 291.197 284.807C290.961 285.898 290.939 287.025 291.132 288.124C291.325 289.223 291.728 290.272 292.32 291.212C293.568 293.041 295.862 294.183 298.001 293.719C300.443 293.188 302.135 290.76 302.619 288.266C303.103 285.771 302.623 283.199 302.143 280.704L301.649 282.342Z" fill="#2F2E41"/>
<path d="M336.4 286.091C336.155 283.466 332.997 281.851 330.528 282.643C328.059 283.436 326.438 285.968 325.948 288.557C325.712 289.647 325.69 290.774 325.883 291.873C326.075 292.972 326.479 294.022 327.071 294.962C328.319 296.791 330.613 297.932 332.752 297.468C335.194 296.938 336.886 294.51 337.37 292.015C337.854 289.521 337.374 286.949 336.894 284.454L336.4 286.091Z" fill="#2F2E41"/>
<path d="M223.016 87.1425C215.788 91.8557 207.414 94.4258 198.833 94.5648C190.251 94.7039 181.801 92.4063 174.43 87.9297C175.726 85.4715 177.37 83.2199 179.307 81.2464C182.296 78.1881 185.933 75.8682 189.94 74.465C193.947 73.0617 198.216 72.6125 202.42 73.1518C206.624 73.691 210.65 75.2045 214.19 77.5758C217.73 79.9471 220.689 83.1131 222.84 86.8308C222.897 86.9312 222.959 87.0368 223.016 87.1425Z" fill="#913276"/>
<path d="M196.694 61.8775C209.359 61.8775 219.626 51.4221 219.626 38.5246C219.626 25.6271 209.359 15.1716 196.694 15.1716C184.029 15.1716 173.762 25.6271 173.762 38.5246C173.762 51.4221 184.029 61.8775 196.694 61.8775Z" fill="#2F2E41"/>
<path d="M211.51 54.9964C216.031 46.5735 212.991 36.0128 204.72 31.4084C196.449 26.8041 186.079 29.8996 181.557 38.3225C177.036 46.7454 180.076 57.3061 188.347 61.9104C196.618 66.5148 206.988 63.4193 211.51 54.9964Z" fill="#FFB8B8"/>
<path d="M180.848 35.7269C184.748 38.4643 189.377 39.9212 194.114 39.902C192.424 41.0951 190.501 41.901 188.476 42.2642C194.774 43.6399 201.283 43.6772 207.596 42.3736C208.999 42.1445 210.353 41.6709 211.598 40.9737C212.219 40.6207 212.759 40.1387 213.185 39.559C213.611 38.9793 213.912 38.3149 214.069 37.6089C214.488 35.1685 212.621 32.9514 210.68 31.4571C207.709 29.2043 204.283 27.6521 200.651 26.9129C197.018 26.1737 193.27 26.266 189.677 27.1831C187.331 27.8007 184.98 28.8441 183.456 30.7629C181.932 32.6817 181.481 35.6398 182.933 37.6156L180.848 35.7269Z" fill="#2F2E41"/>
<path d="M198.1 0C185.72 0.0140169 173.852 5.0278 165.098 13.9415C156.343 22.8552 151.419 34.941 151.403 47.5476C151.405 51.3933 151.87 55.2243 152.786 58.9551C152.882 59.3386 152.977 59.7221 153.078 60.0999C155.772 70.1563 161.639 79.0312 169.775 85.3563C177.911 91.6815 187.864 95.1057 198.1 95.1009C208.338 95.1007 218.292 91.6751 226.431 85.3512C234.571 79.0273 240.445 70.1553 243.149 60.0999C243.25 59.7164 243.346 59.3386 243.436 58.9551C245.129 51.9508 245.236 44.646 243.749 37.5932C242.263 30.5404 239.22 23.9242 234.853 18.2448C230.486 12.5655 224.907 7.97179 218.54 4.81098C212.173 1.65017 205.183 0.00504642 198.1 0ZM242.368 58.9551C242.278 59.3386 242.177 59.7221 242.07 60.0999C240.174 66.9777 236.747 73.3184 232.056 78.6301C227.365 83.9419 221.536 88.0821 215.021 90.7296C208.505 93.3771 201.478 94.4608 194.485 93.8967C187.492 93.3326 180.72 91.1359 174.695 87.4768C164.682 81.3405 157.338 71.5517 154.157 60.0999C154.051 59.7164 153.949 59.3386 153.854 58.9551C152.917 55.2276 152.443 51.3952 152.443 47.5476C152.45 40.9615 153.832 34.4521 156.496 28.4505C159.16 22.449 163.045 17.0924 167.895 12.7354C172.745 8.37837 178.449 5.12048 184.628 3.17748C190.808 1.23448 197.323 0.650726 203.74 1.46487C210.158 2.27902 216.333 4.47248 221.856 7.89999C227.378 11.3275 232.123 15.9108 235.775 21.3464C239.427 26.7819 241.903 32.9456 243.04 39.4293C244.177 45.9129 243.947 52.5685 242.368 58.9551Z" fill="#3F3D56"/>
<path d="M71.6127 252.065C64.3853 256.778 56.0118 259.349 47.4305 259.488C38.8491 259.628 30.3992 257.331 23.0278 252.855C23.1063 252.7 23.1906 252.546 23.2806 252.397C25.6451 248.056 29.091 244.427 33.2712 241.874C37.4514 239.322 42.2184 237.936 47.0919 237.856C51.9655 237.777 56.7736 239.006 61.0319 241.421C65.2903 243.836 68.8486 247.351 71.3484 251.613C71.3821 251.658 71.4101 251.71 71.4384 251.756C71.4947 251.853 71.5564 251.962 71.6127 252.065Z" fill="#913276"/>
<path d="M68.2232 203.447C68.2232 208.065 66.8782 212.58 64.3584 216.421C61.8385 220.261 58.257 223.254 54.0667 225.022C49.8764 226.789 45.2655 227.252 40.8171 226.351C36.3687 225.45 32.2826 223.226 29.0755 219.96C25.8684 216.694 23.6844 212.532 22.7995 208.002C21.9147 203.472 22.3688 198.777 24.1045 194.51C25.8402 190.243 28.7795 186.595 32.5506 184.029C36.3218 181.463 40.7555 180.094 45.291 180.094C48.3066 180.079 51.2951 180.673 54.0838 181.841C56.8726 183.01 59.4064 184.729 61.5387 186.901C63.671 189.072 65.3596 191.653 66.507 194.492C67.6543 197.332 68.2376 200.376 68.2232 203.447Z" fill="#2F2E41"/>
<path d="M63.2601 217.956C62.9976 218.629 62.6954 219.285 62.3552 219.92C60.1837 223.964 56.5236 226.965 52.1799 228.262C47.8362 229.558 43.1645 229.045 39.1925 226.834C37.2242 225.74 35.4868 224.262 34.0796 222.484C32.6725 220.706 31.6232 218.663 30.9916 216.472C30.3601 214.281 30.1588 211.985 30.3991 209.714C30.6394 207.444 31.3167 205.244 32.3922 203.24C33.4678 201.237 34.9205 199.469 36.6674 198.037C38.4143 196.605 40.421 195.538 42.5731 194.896C44.7251 194.255 46.9802 194.051 49.2095 194.298C51.4388 194.544 53.5986 195.235 55.5654 196.332C59.2141 198.364 62.0091 201.682 63.4259 205.663C64.8426 209.645 64.7837 214.016 63.2601 217.956Z" fill="#A0616A"/>
<path d="M80.6899 179.922C80.3301 179.521 79.9535 179.126 79.5658 178.743C73.3203 172.44 65.4532 168.062 56.8709 166.113C48.2887 164.165 39.3405 164.725 31.0573 167.73C22.7742 170.735 15.4932 176.061 10.0531 183.096C4.61312 190.131 1.23548 198.588 0.309387 207.492C-0.61671 216.397 0.946413 225.387 4.81867 233.426C8.69092 241.465 14.7147 248.227 22.1961 252.932C29.6774 257.637 38.3118 260.094 47.1044 260.019C55.8971 259.945 64.4902 257.342 71.8936 252.511C74.6585 250.704 77.2299 248.607 79.5658 246.255C79.9481 245.871 80.3246 245.482 80.6899 245.082C88.8451 236.267 93.3869 224.613 93.3869 212.502C93.3869 200.391 88.8451 188.737 80.6899 179.922ZM79.5658 244.75C77.0973 247.354 74.3396 249.657 71.3483 251.612C71.3428 251.618 71.3371 251.618 71.3316 251.624C64.1848 256.283 55.9051 258.824 47.4202 258.962C38.9353 259.099 30.5805 256.828 23.2917 252.402C23.2862 252.402 23.2863 252.397 23.2805 252.397C17.6904 249.002 12.8777 244.429 9.16517 238.985C5.45269 233.541 2.92626 227.351 1.75534 220.831C0.584417 214.311 0.796067 207.612 2.3761 201.182C3.95613 194.752 6.86801 188.741 10.9164 183.551C14.9649 178.361 20.0563 174.113 25.8491 171.091C31.642 168.069 38.0024 166.344 44.5037 166.031C51.0051 165.717 57.4971 166.823 63.5443 169.274C69.5915 171.725 75.0541 175.465 79.5658 180.242C79.9536 180.643 80.3246 181.055 80.6899 181.473C88.1959 189.998 92.347 201.046 92.347 212.496C92.347 223.946 88.1959 234.994 80.6899 243.519C80.3301 243.937 79.9535 244.349 79.5658 244.75Z" fill="#3F3D56"/>
<path d="M63.8773 184.053C62.7476 182.1 61.1099 180.504 59.1451 179.439C57.1803 178.374 54.9648 177.884 52.7433 178.021C50.4115 178.198 48.193 179.073 46.0145 179.939L34.9393 184.338C32.0734 185.477 28.9347 186.871 27.6911 189.736C26.5369 192.396 27.398 195.467 28.2697 198.236L32.4134 211.396C32.9812 208.44 33.5579 205.454 34.7616 202.703C35.9652 199.951 37.8689 197.414 40.5008 196.039C43.3776 194.536 46.7684 194.567 49.9979 194.725C54.5717 194.949 59.5448 195.542 62.7946 198.827C64.5197 200.693 65.6892 203.019 66.1673 205.535C66.6377 208.038 66.8746 210.58 66.8745 213.128C68.7501 209.845 70.3301 206.395 71.5951 202.822C72.6356 200.161 73.2285 197.341 73.349 194.48C73.3738 191.622 72.5793 188.675 70.7082 186.545C68.8371 184.415 65.7884 183.266 63.1072 184.109" fill="#2F2E41"/>
<path d="M28.9536 121.254L27.8296 121.241C27.843 120.096 27.8754 118.934 27.9259 117.788L29.0488 117.84C28.9989 118.973 28.9669 120.122 28.9536 121.254Z" fill="#E6E6E6"/>
<path d="M29.5423 111.303L28.4248 111.179C28.6595 108.991 28.9669 106.784 29.3384 104.62L30.4458 104.817C30.0783 106.957 29.7744 109.139 29.5423 111.303ZM31.7581 98.4041L30.6655 98.1347C31.1743 95.9969 31.7585 93.8488 32.402 91.7496L33.4751 92.0906C32.8388 94.1663 32.2611 96.2906 31.7581 98.4041ZM35.5928 85.8967L34.5437 85.4853C35.32 83.4317 36.173 81.3766 37.0788 79.3772L38.0996 79.8568C37.2038 81.8339 36.3605 83.866 35.5928 85.8967ZM40.9841 73.9952L39.996 73.4496C41.0252 71.5168 42.1306 69.5914 43.2817 67.727L44.2333 68.3363C43.095 70.18 42.0019 72.0838 40.9841 73.9952ZM47.8323 62.9023L46.921 62.2321C48.1857 60.4487 49.5239 58.6838 50.8983 56.9865L51.7655 57.7148C50.4064 59.3934 49.0831 61.1384 47.8323 62.9023ZM56.0161 52.7948L55.1963 52.0117C56.6732 50.4086 58.2212 48.8326 59.7972 47.327L60.5662 48.1621C59.0076 49.6509 57.4767 51.2096 56.0161 52.7948ZM65.3969 43.8351L64.6818 42.9519C66.3481 41.5529 68.0804 40.1909 69.8306 38.9042L70.4887 39.8321C68.7579 41.1049 67.0448 42.4517 65.3969 43.8351ZM75.8209 36.1703L75.2226 35.2011C77.051 34.0306 78.9396 32.9063 80.8361 31.859L81.372 32.8652C79.4966 33.901 77.629 35.0127 75.8209 36.1703ZM87.1191 29.932L86.6481 28.8923C88.6071 27.972 90.6212 27.1048 92.6346 26.3147L93.0387 27.3828C91.0478 28.164 89.0561 29.0217 87.1191 29.932ZM99.1059 25.2294L98.7705 24.1367C100.831 23.4807 102.94 22.8849 105.04 22.3659L105.305 23.4782C103.229 23.9916 101.143 24.5807 99.1059 25.2294ZM111.602 22.1392L111.408 21.0118C113.532 20.6325 115.699 20.3187 117.848 20.0789L117.97 21.2169C115.845 21.4539 113.703 21.7644 111.602 22.1392Z" fill="#E6E6E6"/>
<path d="M124.428 20.71L124.377 19.5664C125.503 19.5149 126.644 19.482 127.768 19.4683L127.781 20.613C126.67 20.6264 125.542 20.6591 124.428 20.71Z" fill="#E6E6E6"/>
<path d="M33.1049 117.575L32.3018 116.773L28.4269 120.809L24.7566 116.578L23.9141 117.338L28.3853 122.489L33.1049 117.575Z" fill="#E6E6E6"/>
<path d="M124.168 24.8408L123.381 24.0228L127.344 20.0768L123.189 16.3392L123.935 15.4812L128.994 20.0345L124.168 24.8408Z" fill="#E6E6E6"/>
<path d="M292.344 32.0285C291.355 31.4982 290.358 30.9771 289.354 30.4652L289.857 29.4417C290.868 29.9568 291.872 30.4813 292.868 31.0153L292.344 32.0285Z" fill="#E6E6E6"/>
<path d="M368.732 243.309L367.691 242.875C368.537 240.774 369.35 238.63 370.109 236.503L371.165 236.893C370.402 239.035 369.583 241.194 368.732 243.309ZM373.34 230.382L372.269 230.035C372.943 227.874 373.581 225.669 374.167 223.483L375.251 223.784C374.662 225.986 374.019 228.205 373.34 230.382ZM376.895 217.112L375.799 216.856C376.297 214.644 376.755 212.394 377.162 210.167L378.267 210.376C377.857 212.618 377.396 214.884 376.895 217.112ZM379.365 203.588L378.252 203.425C378.569 201.181 378.844 198.899 379.069 196.644L380.187 196.76C379.96 199.03 379.684 201.328 379.365 203.588ZM380.733 189.902L379.61 189.833C379.744 187.571 379.834 185.274 379.876 183.006L381 183.027C380.957 185.311 380.867 187.624 380.733 189.902ZM380.99 176.147L379.866 176.173C379.844 175.177 379.814 174.182 379.775 173.188C379.725 171.914 379.659 170.62 379.58 169.345L380.702 169.273C380.782 170.557 380.848 171.859 380.898 173.142C380.937 174.143 380.968 175.145 380.99 176.147ZM379.02 162.539C378.789 160.283 378.509 158.003 378.187 155.761L379.3 155.595C379.623 157.853 379.905 160.149 380.138 162.42L379.02 162.539ZM377.083 149.022C376.672 146.795 376.21 144.545 375.71 142.334L376.806 142.077C377.309 144.303 377.774 146.568 378.188 148.81L377.083 149.022ZM374.071 135.708C373.482 133.519 372.842 131.315 372.168 129.155L373.239 128.808C373.918 130.982 374.563 133.202 375.155 135.406L374.071 135.708ZM370.004 122.686C369.244 120.554 368.429 118.409 367.584 116.311L368.624 115.876C369.475 117.989 370.295 120.148 371.061 122.295L370.004 122.686ZM364.911 110.041C363.982 107.978 362.999 105.908 361.989 103.886L362.991 103.367C364.008 105.402 364.997 107.487 365.932 109.563L364.911 110.041ZM358.822 97.858C357.732 95.8802 356.586 93.8979 355.417 91.9664L356.373 91.3657C357.551 93.3103 358.705 95.3063 359.803 97.2978L358.822 97.858ZM351.776 86.2211C350.53 84.3395 349.228 82.4589 347.908 80.632L348.813 79.9535C350.143 81.7929 351.453 83.6865 352.708 85.5812L351.776 86.2211ZM343.817 75.2086C342.422 73.4362 340.972 71.6708 339.509 69.9613L340.356 69.209C341.83 70.9304 343.289 72.708 344.694 74.4926L343.817 75.2086ZM334.992 64.8985C333.458 63.2487 331.87 61.6105 330.273 60.029L331.057 59.2083C332.665 60.8006 334.264 62.4503 335.808 64.1111L334.992 64.8985ZM325.36 55.3613C323.698 53.8465 321.983 52.3468 320.261 50.9038L320.976 50.0198C322.709 51.473 324.436 52.9832 326.11 54.5084L325.36 55.3613ZM314.985 46.6637C313.212 45.2983 311.384 43.9494 309.551 42.6547L310.191 41.714C312.037 43.0177 313.878 44.3758 315.663 45.7505L314.985 46.6637ZM303.959 38.8765C302.084 37.6638 300.153 36.4718 298.222 35.333L298.785 34.3423C300.729 35.4887 302.673 36.689 304.562 37.9099L303.959 38.8765Z" fill="#E6E6E6"/>
<path d="M364.6 252.747L363.587 252.25C364.075 251.22 364.552 250.187 365.018 249.152L366.04 249.628C365.571 250.671 365.091 251.71 364.6 252.747Z" fill="#E6E6E6"/>
<path d="M290.762 35.8843L291.823 35.5037L289.975 30.1822L295.323 28.694L295.025 27.5894L288.513 29.4027L290.762 35.8843Z" fill="#E6E6E6"/>
<path d="M361.452 247.083L362.52 246.725L364.249 252.087L369.376 249.94L369.802 251L363.558 253.615L361.452 247.083Z" fill="#E6E6E6"/>
</g>
<defs>
<clipPath id="clip0_161_188">
<rect width="381" height="357" fill="white"/>
</clipPath>
</defs>
</svg>
