<svg width="424" height="191" viewBox="0 0 424 191" fill="none" xmlns="http://www.w3.org/2000/svg">
<g clip-path="url(#clip0_161_488)">
<path d="M34.8863 174.312C36.5281 174.889 38.2908 175.034 40.0046 174.732C41.7184 174.43 43.3256 173.692 44.6713 172.588C48.0986 169.712 49.1744 164.973 50.0474 160.584L52.6333 147.605L47.2193 151.333C43.3258 154.014 39.3448 156.781 36.6488 160.664C33.9527 164.548 32.7762 169.849 34.9421 174.05" fill="#E6E6E6"/>
<path d="M35.3493 190.026C34.8013 186.035 34.2378 181.992 34.6221 177.958C34.9636 174.375 36.0564 170.875 38.282 168.006C39.4633 166.486 40.9007 165.183 42.5296 164.157C42.9545 163.889 43.3451 164.562 42.9224 164.829C40.1041 166.61 37.9242 169.24 36.6971 172.34C35.3417 175.787 35.1241 179.545 35.3595 183.207C35.5008 185.422 35.8 187.621 36.1018 189.819C36.1262 189.918 36.1115 190.023 36.061 190.112C36.0104 190.201 35.9277 190.268 35.8299 190.298C35.7303 190.325 35.6242 190.311 35.5346 190.26C35.4449 190.209 35.3789 190.125 35.351 190.026L35.3493 190.026Z" fill="#F2F2F2"/>
<path d="M402.298 169.233C400.549 169.848 398.671 170.002 396.845 169.68C395.019 169.359 393.307 168.572 391.873 167.397C388.222 164.332 387.077 159.284 386.145 154.609L383.39 140.781L389.158 144.752C393.307 147.609 397.548 150.557 400.42 154.694C403.293 158.831 404.546 164.479 402.239 168.955" fill="#E6E6E6"/>
<path d="M401.407 186.938C402.133 181.649 402.88 176.291 402.37 170.945C401.917 166.197 400.469 161.56 397.52 157.757C395.954 155.742 394.049 154.016 391.891 152.656C391.328 152.301 390.81 153.193 391.37 153.547C395.105 155.907 397.994 159.392 399.621 163.5C401.417 168.069 401.705 173.049 401.396 177.901C401.209 180.836 400.811 183.751 400.412 186.663C400.381 186.795 400.4 186.934 400.467 187.052C400.534 187.169 400.643 187.257 400.773 187.298C400.904 187.333 401.045 187.315 401.164 187.248C401.282 187.18 401.37 187.069 401.407 186.937L401.407 186.938Z" fill="#F2F2F2"/>
<path d="M396.181 178.451C395.431 179.591 394.4 180.519 393.187 181.145C391.974 181.771 390.621 182.075 389.257 182.026C385.75 181.859 382.828 179.413 380.198 177.09L372.417 170.22L377.567 169.974C381.27 169.796 385.069 169.63 388.596 170.773C392.124 171.917 395.377 174.664 396.021 178.315" fill="#E6E6E6"/>
<path d="M403.459 189.979C399.964 183.794 395.91 176.921 388.666 174.724C386.652 174.115 384.54 173.897 382.444 174.081C381.783 174.138 381.948 175.157 382.607 175.1C386.121 174.808 389.628 175.736 392.537 177.727C395.337 179.633 397.517 182.282 399.362 185.092C400.492 186.813 401.505 188.607 402.517 190.399C402.84 190.971 403.787 190.558 403.459 189.979Z" fill="#F2F2F2"/>
<path d="M304.246 115.148H129.029V77.6968H304.246V115.148Z" fill="white"/>
<path d="M151.733 105.936C156.987 105.936 161.247 101.676 161.247 96.4221C161.247 91.1679 156.987 86.9084 151.733 86.9084C146.479 86.9084 142.219 91.1679 142.219 96.4221C142.219 101.676 146.479 105.936 151.733 105.936Z" fill="#913276"/>
<path d="M173.705 90.0798C173.285 90.0798 172.881 90.2469 172.584 90.5442C172.287 90.8416 172.12 91.2449 172.12 91.6654C172.12 92.086 172.287 92.4893 172.584 92.7866C172.881 93.084 173.285 93.251 173.705 93.251H289.473C289.893 93.2501 290.296 93.0826 290.592 92.7853C290.889 92.4881 291.055 92.0853 291.055 91.6654C291.055 91.2456 290.889 90.8428 290.592 90.5456C290.296 90.2483 289.893 90.0808 289.473 90.0798H173.705Z" fill="#913276"/>
<path d="M173.705 99.5935C173.285 99.5926 172.881 99.7588 172.583 100.056C172.285 100.352 172.117 100.755 172.116 101.176C172.115 101.596 172.282 102 172.578 102.298C172.875 102.596 173.278 102.764 173.698 102.765H246.888C247.097 102.765 247.303 102.724 247.496 102.645C247.689 102.565 247.864 102.449 248.011 102.301C248.159 102.154 248.276 101.979 248.356 101.787C248.436 101.594 248.477 101.388 248.477 101.179C248.477 100.971 248.436 100.764 248.356 100.572C248.276 100.379 248.159 100.204 248.011 100.057C247.864 99.9097 247.689 99.793 247.496 99.7134C247.303 99.6339 247.097 99.5932 246.888 99.5935H173.705Z" fill="#913276"/>
<path d="M304.246 115.148H129.029V77.6968H304.246V115.148ZM131.704 112.473H301.571V80.3719H131.704V112.473Z" fill="#CCCCCC"/>
<path d="M353.589 105.845C353.419 105.344 353.36 104.812 353.418 104.287C353.476 103.761 353.648 103.254 353.923 102.802C354.197 102.35 354.568 101.964 355.008 101.671C355.448 101.378 355.947 101.184 356.47 101.105L358.453 93.0796L363.624 93.0954L360.664 104.389C360.74 105.276 360.487 106.161 359.954 106.874C359.421 107.587 358.645 108.08 357.773 108.26C356.901 108.439 355.993 108.293 355.222 107.847C354.451 107.402 353.87 106.69 353.589 105.845Z" fill="#FFB7B7"/>
<path d="M362.319 100.652L354.399 100.103L358.235 77.2454L355.794 52.0769L363.8 48.7944L369.139 76.7443L369.124 76.7952L362.319 100.652Z" fill="#3F3D56"/>
<path d="M301.084 97.9729C301.074 97.4442 301.181 96.9198 301.397 96.4368C301.612 95.9538 301.931 95.5238 302.33 95.1773C302.73 94.8308 303.2 94.576 303.709 94.4311C304.217 94.2861 304.752 94.2544 305.274 94.3382L309.612 87.301L314.531 88.8941L308.266 98.7459C308.067 99.6138 307.556 100.379 306.831 100.895C306.106 101.412 305.217 101.645 304.331 101.55C303.446 101.454 302.626 101.038 302.028 100.378C301.429 99.7192 301.093 98.8633 301.084 97.9729Z" fill="#FFB7B7"/>
<path d="M325.506 185.964H321.294L319.29 169.715L325.507 169.715L325.506 185.964Z" fill="#FFB7B7"/>
<path d="M326.581 190.048L312.997 190.048V189.876C312.997 188.474 313.554 187.129 314.545 186.137C315.537 185.146 316.882 184.589 318.284 184.589L326.581 184.589L326.581 190.048Z" fill="#2F2E41"/>
<path d="M354.897 185.964H350.684L348.68 169.715L354.897 169.715L354.897 185.964Z" fill="#FFB7B7"/>
<path d="M355.971 190.048L342.387 190.048V189.876C342.387 188.474 342.944 187.129 343.935 186.137C344.927 185.146 346.272 184.589 347.674 184.589L355.971 184.589L355.971 190.048Z" fill="#2F2E41"/>
<path d="M350.89 33.3729C356.418 33.3729 360.899 28.892 360.899 23.3645C360.899 17.8369 356.418 13.356 350.89 13.356C345.363 13.356 340.882 17.8369 340.882 23.3645C340.882 28.892 345.363 33.3729 350.89 33.3729Z" fill="#FFB8B8"/>
<path d="M347.51 22.8157C346.014 23.4413 344.34 23.4877 342.812 22.9458C341.284 22.404 340.013 21.3127 339.246 19.8847C338.478 18.4567 338.27 16.7942 338.662 15.2212C339.054 13.6482 340.017 12.2773 341.364 11.3758C344.028 9.59309 348.006 10.1831 350.589 12.2506C352.33 11.4587 354.278 11.2413 356.151 11.6299C358.024 12.0186 359.724 12.9931 361.006 14.4125C363.499 17.2964 363.772 21.874 361.955 25.2359C361.161 26.9885 360.808 28.9092 360.928 30.8297C361.049 32.7503 361.638 34.612 362.645 36.2517C361.864 36.2199 360.143 36.0751 357.99 35.8893C357.367 35.8356 357.098 34.0057 356.415 33.9468C355.812 33.8949 354.801 35.6144 354.17 35.5611C349.495 35.166 344.261 34.7647 341.888 34.8432C343.676 30.6588 345.464 26.4744 347.51 22.8157Z" fill="#2F2E41"/>
<path d="M358.566 93.873C358.566 93.873 361.818 97.2265 359.832 114.544L358.46 151.314L356.032 183.873L348.221 183.353L341.36 108.415L331.755 135.837L326.583 181.172L319.088 180.653L317.809 135.57L321.094 100.729L358.566 93.873Z" fill="#2F2E41"/>
<path d="M326.372 102.826C322.376 102.826 320.766 102.346 320.648 102.309L320.463 102.25L320.495 102.059C320.522 101.901 323.207 86.2472 326.891 78.0286L329.482 44.6992C329.556 43.709 329.963 42.7731 330.637 42.044C331.312 41.3149 332.213 40.8356 333.194 40.6842L339.784 39.6497L343.815 36.1003L353.471 36.6344L354.323 40.719C355.477 41.0419 363.099 43.3776 363.853 48.9707L363.862 49.0408L363.83 49.1033L349.868 75.9629C351.047 77.1274 360.372 86.7059 361.005 98.9512L361.02 99.2458L360.732 99.18C360.706 99.1746 357.722 98.6075 342.031 101.26C334.774 102.487 329.73 102.826 326.372 102.826Z" fill="#3F3D56"/>
<path d="M310.894 97.8106L305.203 93.4279L317.905 68.0142L329.719 43.1065C329.884 42.7584 330.152 42.4692 330.486 42.2776C330.82 42.086 331.205 42.0013 331.589 42.0347C331.972 42.0682 332.337 42.2183 332.633 42.4648C332.929 42.7113 333.142 43.0425 333.244 43.4138L336.169 54.0223L327.024 77.8137L310.894 97.8106Z" fill="#3F3D56"/>
<path d="M423.554 190.822H253.687C253.568 190.822 253.455 190.775 253.371 190.692C253.288 190.608 253.241 190.495 253.241 190.377C253.241 190.258 253.288 190.145 253.371 190.061C253.455 189.978 253.568 189.931 253.687 189.931H423.554C423.672 189.931 423.786 189.978 423.869 190.061C423.953 190.145 424 190.258 424 190.377C424 190.495 423.953 190.608 423.869 190.692C423.786 190.775 423.672 190.822 423.554 190.822Z" fill="#CBCBCB"/>
<path d="M227.757 56.1765H203.682V32.1008H215.719V32.9925H204.573V55.2848H226.866V44.1387H227.757V56.1765Z" fill="#3F3D56"/>
<path d="M215.268 49.0645L209.419 42.3487L210.427 41.4704L215.279 47.0412L228.595 32.1018L229.593 32.9917L215.268 49.0645Z" fill="#913276"/>
<path d="M78.3364 29.9785L78.8993 27.1641C78.8993 27.1641 87.1787 24.3496 88.105 29.9785H78.3364Z" fill="#E6E6E6"/>
<path d="M94.226 184.947H99.6537L102.236 164.011H94.2251L94.226 184.947Z" fill="#9F616A"/>
<path d="M92.8413 183.175L103.531 183.174H103.531C105.338 183.174 107.07 183.892 108.348 185.17C109.625 186.447 110.343 188.18 110.343 189.986V190.208L92.8417 190.208L92.8413 183.175Z" fill="#2F2E41"/>
<path d="M68.0605 184.947H73.4882L76.0705 164.011H68.0596L68.0605 184.947Z" fill="#9F616A"/>
<path d="M66.6758 183.175L77.3652 183.174H77.3657C79.1723 183.174 80.905 183.892 82.1825 185.17C83.46 186.447 84.1777 188.18 84.1778 189.986V190.208L66.6761 190.208L66.6758 183.175Z" fill="#2F2E41"/>
<path d="M70.4556 41.7994L64.2637 41.2363L60.3237 59.8116L60.8864 76.6985L67.0783 99.2142L75.5217 94.1481L71.0187 71.0697L70.4556 41.7994Z" fill="#3F3D56"/>
<path d="M66.5366 97.244L67.9228 109.065L69.2242 136.647L66.2339 177.748L76.9289 177.174L82.1707 134.395L85.3723 114.693L89.8753 137.209L92.69 179.426L103.666 178.546V137.061L103.948 106.813L100.008 94.9924L66.5366 97.244Z" fill="#2F2E41"/>
<path d="M89.5941 30.5414C89.5941 30.5414 85.6539 24.9125 78.3363 28.8528L74.959 33.3559L64.2641 41.2364L66.5156 67.6922L63.7012 100.903L103.666 100.34L96.9117 67.1293V31.6672L89.5941 30.5414Z" fill="#3F3D56"/>
<path opacity="0.25" d="M67.9228 50.5796L64.6953 89.1698L68.7672 68.2552L67.9228 50.5796Z" fill="black"/>
<path d="M135.104 82.9353C134.529 83.1305 133.919 83.1974 133.315 83.1311C132.712 83.0649 132.131 82.8672 131.612 82.552C131.093 82.2367 130.65 81.8116 130.314 81.3065C129.977 80.8015 129.755 80.2288 129.664 79.6288L120.454 77.3526L120.472 71.4185L133.433 74.8155C134.451 74.7289 135.466 75.0188 136.285 75.6304C137.103 76.2419 137.669 77.1325 137.875 78.1333C138.081 79.1342 137.913 80.1759 137.402 81.0609C136.891 81.9459 136.073 82.6128 135.104 82.9353Z" fill="#9F616A"/>
<path d="M125.473 71.3474L123.924 80.2195L127.806 80.897L129.355 72.0249L125.473 71.3474Z" fill="#E6E6E6"/>
<path d="M83.3297 24.0395C89.5724 24.0395 94.633 18.9789 94.633 12.7362C94.633 6.49354 89.5724 1.43286 83.3297 1.43286C77.087 1.43286 72.0264 6.49354 72.0264 12.7362C72.0264 18.9789 77.087 24.0395 83.3297 24.0395Z" fill="#9F616A"/>
<path d="M84.1745 22.7073C81.4091 23.3712 78.4957 22.9836 76 21.6199C73.5043 20.2562 71.6044 18.0136 70.6695 15.3276C69.7346 12.6417 69.8312 9.70418 70.9407 7.08552C72.0501 4.46686 74.0932 2.35399 76.6732 1.15724C78.6599 0.270516 80.8327 -0.11939 83.0038 0.02118C86.3843 0.198912 89.67 1.44836 93.0539 1.35628L93.5444 2.14469L95.3929 1.69639L95.789 3.16395L96.2759 3.1471C97.148 4.7679 95.7448 7.08835 93.9043 7.06871C93.1806 6.98527 92.467 6.82982 91.7741 6.60468C91.0616 6.452 90.2225 6.49005 89.7312 7.0282C89.0926 7.72756 89.3706 8.81891 89.5037 9.75652C89.6369 10.6941 89.3043 11.9571 88.3578 11.9877C87.8743 12.0033 87.4145 11.6566 86.9394 11.7477C86.386 11.8539 86.1062 12.5221 86.187 13.0798C86.324 13.6269 86.5475 14.1487 86.8491 14.6254C87.489 16.0209 87.5908 17.6036 87.1349 19.0696C86.6791 20.5356 85.6977 21.7815 84.3792 22.568" fill="#2F2E41"/>
<path d="M94.225 33.8421L96.9116 31.6672C96.9116 31.6672 102.334 31.2902 102.236 37.0385L110.912 64.1778L127.556 70.0739L125.314 81.6617L101.764 72.6905L89.8027 52.8645L94.225 33.8421Z" fill="#3F3D56"/>
<path d="M170.313 190.822H0.445846C0.327601 190.822 0.214198 190.775 0.130585 190.692C0.0469726 190.608 0 190.495 0 190.377C0 190.258 0.0469726 190.145 0.130585 190.061C0.214198 189.978 0.327601 189.931 0.445846 189.931H170.313C170.432 189.931 170.545 189.978 170.629 190.061C170.712 190.145 170.759 190.258 170.759 190.377C170.759 190.495 170.712 190.608 170.629 190.692C170.545 190.775 170.432 190.822 170.313 190.822Z" fill="#CBCBCB"/>
</g>
<defs>
<clipPath id="clip0_161_488">
<rect width="424" height="190.822" fill="white"/>
</clipPath>
</defs>
</svg>
