<svg width="440" height="330" viewBox="0 0 440 330" fill="none" xmlns="http://www.w3.org/2000/svg">
<g clip-path="url(#clip0_161_369)">
<path d="M401.69 294.176L402.35 279.338C409.229 275.661 416.902 273.719 424.702 273.68C413.967 282.457 415.308 299.376 408.03 311.179C405.732 314.843 402.639 317.943 398.979 320.248C395.32 322.554 391.189 324.007 386.892 324.499L377.909 330C376.676 323.128 376.948 316.07 378.705 309.313C380.463 302.556 383.664 296.26 388.089 290.859C390.602 287.854 393.483 285.178 396.664 282.892C398.816 288.566 401.69 294.176 401.69 294.176Z" fill="#F2F2F2"/>
<path d="M93.2649 162.265C92.6714 161.724 92.2038 161.058 91.8951 160.316C91.5864 159.574 91.4442 158.774 91.4784 157.971C91.5126 157.168 91.7225 156.382 92.0932 155.669C92.4639 154.956 92.9864 154.333 93.6239 153.844L87.4692 135.305L97.2726 137.938L101.614 155.14C102.365 156.265 102.677 157.627 102.491 158.967C102.305 160.308 101.634 161.533 100.604 162.411C99.5753 163.289 98.2597 163.76 96.907 163.733C95.5543 163.706 94.2584 163.184 93.2649 162.265Z" fill="#A0616A"/>
<path d="M111.032 61.5378C112.659 62.4703 122.283 60.1598 124.163 60.8171C123.125 67.1476 128.76 64.772 122.641 73.0857C116.522 81.3993 104.196 106.326 101.396 115.642C98.5963 124.958 101.368 138.087 100.948 142.503C100.746 145.061 100.758 147.632 100.986 150.188C97.6797 150.146 94.4208 150.832 91.0629 150.394C87.4819 140.261 85.0741 125.838 83.4391 117.866C81.8042 109.895 81.7444 113.266 82.4942 109.28C83.2441 105.294 83.4257 108.191 82.6379 104.378C81.8502 100.565 85.0359 95.7735 87.9794 93.0418C89.2486 89.3914 90.8887 85.9878 92.1452 82.3756C101.353 74.3435 101.958 69.7036 111.032 61.5378Z" fill="#913276"/>
<path d="M378.542 319.718H370.407L366.538 288.342H378.544L378.542 319.718Z" fill="#FFB6B6"/>
<path d="M380.617 327.604L354.387 327.603V327.271C354.387 324.563 355.463 321.967 357.378 320.052C359.292 318.138 361.889 317.062 364.596 317.062L369.388 313.427L378.328 317.062L380.617 317.062L380.617 327.604Z" fill="#2F2E41"/>
<path d="M340.75 319.718H332.615L328.746 288.342H340.751L340.75 319.718Z" fill="#FFB6B6"/>
<path d="M342.825 327.604L316.595 327.603V327.271C316.595 324.563 317.671 321.967 319.586 320.052C321.5 318.138 324.097 317.062 326.805 317.062L331.596 313.427L340.536 317.062L342.825 317.062L342.825 327.604Z" fill="#2F2E41"/>
<path d="M337.229 148.18L390.14 149.503C400.189 154.961 400.342 166.774 397.049 180.8C397.049 180.8 398.161 189.137 395.938 191.36C393.715 193.583 392.603 193.583 393.715 197.473C394.826 201.364 388.954 207.718 389.667 208.431C390.38 209.144 392.047 213.035 392.047 213.035L386.49 244.714C386.49 244.714 382.599 299.735 381.488 300.846C380.376 301.958 379.265 300.846 380.376 303.625C381.488 306.404 382.599 305.292 381.488 306.404C380.503 307.465 379.576 308.578 378.709 309.738H365.272C365.272 309.738 364.259 304.181 364.259 303.625C364.259 303.069 363.148 299.735 363.148 299.179C363.148 298.623 364.13 297.641 364.13 297.641C364.469 296.511 364.699 295.351 364.815 294.177C364.815 293.065 368.149 250.271 368.149 250.271L361.48 194.694L345.363 249.16C345.363 249.16 345.363 296.956 344.251 298.067C343.14 299.179 343.14 298.623 343.696 300.846C344.251 303.069 346.475 302.513 344.807 304.181C343.14 305.848 342.584 303.069 343.14 305.848L343.696 308.627L327.023 308.865C327.023 308.865 324.8 304.181 325.911 302.513C327.023 300.846 326.956 301.301 325.6 298.573C324.244 295.844 323.688 295.288 324.244 294.733C324.8 294.177 324.8 291.221 324.8 291.221L327.578 238.044C327.578 238.044 328.134 181.912 328.134 180.244C328.176 179.387 328.018 178.531 327.673 177.744V175.481L329.802 167.462L337.229 148.18Z" fill="#2F2E41"/>
<path d="M369.014 38.1593C378.093 38.1593 385.454 30.7989 385.454 21.7194C385.454 12.6399 378.093 5.27954 369.014 5.27954C359.934 5.27954 352.574 12.6399 352.574 21.7194C352.574 30.7989 359.934 38.1593 369.014 38.1593Z" fill="#FFB6B6"/>
<path d="M360.793 49.0247C357.252 51.1303 355.133 54.9991 353.917 58.9358C351.665 66.2243 350.31 73.7599 349.881 81.3762L348.596 104.178L332.687 152.729C346.475 164.396 398.303 155.381 398.303 155.381C398.303 155.381 399.894 154.851 398.303 153.26C396.712 151.669 395.163 153.078 396.754 151.487C398.345 149.896 397.248 151.669 396.718 150.078C396.188 148.487 396.718 149.547 397.248 149.017C397.779 148.487 393.143 143.714 393.143 143.714L397.385 115.845L402.689 59.6311C396.325 51.6763 383.526 46.987 383.526 46.987L380.219 41.0344L363.684 42.3572L360.793 49.0247Z" fill="#3F3D56"/>
<path d="M358.539 12.0712C359.175 12.0761 359.808 12.1592 360.424 12.3185C361.638 12.6104 362.871 12.8171 364.114 12.9373C367.92 13.2953 371.496 14.9184 374.271 17.5473C377.046 20.1762 378.86 23.6592 379.424 27.4401C380.379 26.6073 382.553 25.0752 384.334 26.4991C384.362 26.5217 384.377 26.5333 384.44 26.5036C385.623 25.9423 387.724 19.0332 387.787 12.9499C387.821 9.72106 387.313 5.59801 384.701 4.29234L384.564 4.22355L384.528 4.07402C384.353 3.34772 382.404 2.10793 379.016 1.14297C372.859 -0.610628 363.863 -0.864142 358.696 4.16316C358.305 5.85798 356.851 6.32238 355.566 6.73349C354.143 7.18853 352.913 7.58122 352.72 9.32706C352.558 11.8115 352.57 14.3043 352.755 16.7871C353.237 15.2678 354.184 13.9381 355.461 12.9851C356.37 12.3735 357.444 12.0545 358.539 12.0712Z" fill="#2F2E41"/>
<path d="M327.939 102.909L354.794 85.7101L341.268 67.73L327.912 84.159L286.298 86.7113C285.204 85.6293 283.818 84.8892 282.31 84.5812C280.802 84.2731 279.237 84.4105 277.806 84.9765C276.375 85.5425 275.139 86.5127 274.25 87.7688C273.361 89.0249 272.856 90.5126 272.798 92.0505C272.739 93.5884 273.13 95.1101 273.921 96.4301C274.713 97.75 275.871 98.8111 277.255 99.4841C278.639 100.157 280.189 100.413 281.716 100.22C283.243 100.027 284.681 99.3943 285.854 98.3985L327.939 102.909Z" fill="#FFB6B6"/>
<path d="M379.719 61.7046C381.277 71.1372 351.844 89.1494 351.844 89.1494C351.843 86.9354 334.276 103.649 333.483 101.813C331.23 96.5947 329.645 84.2342 326.496 82.2558C324.695 81.1244 337.342 70.4957 337.342 70.4957C337.342 70.4957 343.962 63.8263 352.65 55.4139C355.062 52.99 358.048 51.2158 361.33 50.2564C364.613 49.297 368.084 49.1837 371.422 49.9269C371.422 49.9269 378.16 52.2721 379.719 61.7046Z" fill="#3F3D56"/>
<path d="M349.796 170.006C349.807 180.101 348.117 190.124 344.795 199.657C344.643 200.1 344.485 200.536 344.326 200.979C337.527 219.444 324.881 235.181 308.313 245.795C307.182 246.523 306.038 247.217 304.874 247.892C291.637 255.565 276.653 259.715 261.354 259.943C260.851 259.949 260.349 259.956 259.846 259.956C259.198 259.956 258.556 259.949 257.915 259.936C242.596 259.631 227.611 255.4 214.395 247.647C213.231 246.966 212.085 246.258 210.956 245.524C192.562 233.6 179.149 215.375 173.235 194.266C167.321 173.158 169.311 150.617 178.832 130.872C179.044 130.429 179.262 129.992 179.487 129.549C186.985 114.668 198.469 102.161 212.657 93.4225C226.846 84.684 243.182 80.0569 259.846 80.0569C276.51 80.0569 292.846 84.684 307.035 93.4225C321.223 102.161 332.707 114.668 340.205 129.549C340.43 129.992 340.648 130.429 340.86 130.872C346.761 143.073 349.816 156.453 349.796 170.006Z" fill="#F2F2F2"/>
<path d="M321.964 199.656V200.979H330.02V199.656H321.964ZM305.853 199.656V200.979H313.908V199.656H305.853ZM289.741 199.656V200.979H297.797V199.656H289.741ZM273.629 199.656V200.979H281.685V199.656H273.629ZM257.518 199.656V200.979H265.574V199.656H257.518ZM241.406 199.656V200.979H249.462V199.656H241.406ZM225.295 199.656V200.979H233.351V199.656H225.295ZM209.19 199.656V200.979H217.239V199.656H209.19ZM193.078 199.656V200.979H201.134V199.656H193.078ZM176.967 199.656V200.979H185.023V199.656H176.967ZM344.795 199.656H338.076V200.979H344.326L344.795 199.656Z" fill="#E6E6E6"/>
<path d="M338.076 190.397V191.72H346.131V190.397H338.076ZM321.964 190.397V191.72H330.02V190.397H321.964ZM305.853 190.397V191.72H313.908V190.397H305.853ZM289.741 190.397V191.72H297.797V190.397H289.741ZM273.629 190.397V191.72H281.685V190.397H273.629ZM257.518 190.397V191.72H265.574V190.397H257.518ZM241.406 190.397V191.72H249.462V190.397H241.406ZM225.295 190.397V191.72H233.351V190.397H225.295ZM209.19 190.397V191.72H217.239V190.397H209.19ZM193.078 190.397V191.72H201.134V190.397H193.078ZM176.967 190.397V191.72H185.023V190.397H176.967Z" fill="#E6E6E6"/>
<path d="M338.076 171.217V172.539H346.131V171.217H338.076ZM321.964 171.217V172.539H330.02V171.217H321.964ZM305.853 171.217V172.539H313.908V171.217H305.853ZM289.741 171.217V172.539H297.797V171.217H289.741ZM273.629 171.217V172.539H281.685V171.217H273.629ZM257.518 171.217V172.539H265.574V171.217H257.518ZM241.406 171.217V172.539H249.462V171.217H241.406ZM225.295 171.217V172.539H233.351V171.217H225.295ZM209.19 171.217V172.539H217.239V171.217H209.19ZM193.078 171.217V172.539H201.134V171.217H193.078ZM176.967 171.217V172.539H185.023V171.217H176.967Z" fill="#E6E6E6"/>
<path d="M338.076 157.989V159.312H346.131V157.989H338.076ZM321.964 157.989V159.312H330.02V157.989H321.964ZM305.853 157.989V159.312H313.908V157.989H305.853ZM289.741 157.989V159.312H297.797V157.989H289.741ZM273.629 157.989V159.312H281.685V157.989H273.629ZM257.518 157.989V159.312H265.574V157.989H257.518ZM241.406 157.989V159.312H249.462V157.989H241.406ZM225.295 157.989V159.312H233.351V157.989H225.295ZM209.19 157.989V159.312H217.239V157.989H209.19ZM193.078 157.989V159.312H201.134V157.989H193.078ZM176.967 157.989V159.312H185.023V157.989H176.967Z" fill="#E6E6E6"/>
<path d="M340.205 129.549H338.076V130.872H340.86C340.649 130.428 340.43 129.992 340.205 129.549ZM321.964 129.549V130.872H330.02V129.549H321.964ZM305.853 129.549V130.872H313.908V129.549H305.853ZM289.741 129.549V130.872H297.797V129.549H289.741ZM273.63 129.549V130.872H281.685V129.549H273.63ZM257.518 129.549V130.872H265.574V129.549H257.518ZM241.406 129.549V130.872H249.462V129.549H241.406ZM225.295 129.549V130.872H233.351V129.549H225.295ZM209.19 129.549V130.872H217.239V129.549H209.19ZM193.078 129.549V130.872H201.134V129.549H193.078ZM179.487 129.549C179.262 129.992 179.044 130.428 178.832 130.872H185.023V129.549H179.487Z" fill="#E6E6E6"/>
<path d="M308.313 134.007V245.795C307.182 246.523 306.038 247.217 304.874 247.892V134.007H308.313Z" fill="#3F3D56"/>
<path d="M261.354 171.045V259.943C260.851 259.949 260.348 259.956 259.846 259.956C259.198 259.956 258.556 259.949 257.915 259.936V171.045H261.354Z" fill="#3F3D56"/>
<path d="M214.395 134.007V247.647C213.231 246.966 212.084 246.258 210.956 245.524V134.007H214.395Z" fill="#3F3D56"/>
<path d="M45.8702 286.159L44.5583 267.912C35.9645 263.616 26.452 261.483 16.8467 261.698C30.36 272.143 29.2776 293.02 38.6364 307.307C41.5894 311.741 45.5023 315.453 50.0852 318.169C54.668 320.885 59.8033 322.535 65.1105 322.997L76.3568 329.467C77.6433 320.964 77.0711 312.283 74.6797 304.023C72.2883 295.762 68.1344 288.118 62.5044 281.618C59.3098 278.002 55.6727 274.803 51.6788 272.097C49.2206 279.154 45.8702 286.159 45.8702 286.159Z" fill="#F2F2F2"/>
<path d="M306.144 142.889C313.084 142.889 318.71 137.263 318.71 130.323C318.71 123.382 313.084 117.756 306.144 117.756C299.203 117.756 293.577 123.382 293.577 130.323C293.577 137.263 299.203 142.889 306.144 142.889Z" fill="#913276"/>
<path d="M312.594 125.085C312.405 124.905 312.154 124.804 311.893 124.804C311.631 124.804 311.38 124.905 311.191 125.085C308.525 127.212 306.13 129.658 304.06 132.369C303.552 131.386 303.044 130.403 302.536 129.42C301.949 128.285 300.237 129.288 300.823 130.421C301.566 131.859 302.309 133.297 303.052 134.735C303.142 134.882 303.267 135.003 303.417 135.087C303.567 135.172 303.737 135.216 303.909 135.216C304.081 135.216 304.25 135.172 304.4 135.087C304.55 135.003 304.676 134.882 304.765 134.735C306.971 131.629 309.607 128.852 312.594 126.488C312.779 126.302 312.882 126.05 312.882 125.787C312.882 125.524 312.779 125.272 312.594 125.085Z" fill="white"/>
<path d="M259.846 179.927C266.786 179.927 272.412 174.301 272.412 167.361C272.412 160.42 266.786 154.794 259.846 154.794C252.905 154.794 247.279 160.42 247.279 167.361C247.279 174.301 252.905 179.927 259.846 179.927Z" fill="#913276"/>
<path d="M266.297 162.123C266.108 161.943 265.856 161.843 265.595 161.843C265.334 161.843 265.083 161.943 264.894 162.123C262.227 164.25 259.832 166.696 257.763 169.407C257.255 168.424 256.746 167.441 256.238 166.458C255.652 165.323 253.939 166.326 254.525 167.459C255.268 168.897 256.011 170.335 256.755 171.773C256.844 171.92 256.97 172.041 257.12 172.126C257.27 172.21 257.439 172.254 257.611 172.254C257.783 172.254 257.952 172.21 258.102 172.126C258.252 172.041 258.378 171.92 258.468 171.773C260.673 168.667 263.309 165.89 266.297 163.527C266.481 163.34 266.585 163.088 266.585 162.825C266.585 162.562 266.481 162.31 266.297 162.123Z" fill="white"/>
<path d="M212.887 145.535C219.827 145.535 225.453 139.909 225.453 132.968C225.453 126.028 219.827 120.402 212.887 120.402C205.947 120.402 200.32 126.028 200.32 132.968C200.32 139.909 205.947 145.535 212.887 145.535Z" fill="#913276"/>
<path d="M219.338 127.731C219.149 127.551 218.897 127.45 218.636 127.45C218.375 127.45 218.124 127.551 217.935 127.731C215.268 129.858 212.873 132.304 210.804 135.015C210.296 134.032 209.787 133.049 209.279 132.065C208.693 130.931 206.98 131.933 207.566 133.067C208.309 134.505 209.052 135.943 209.796 137.381C209.885 137.527 210.011 137.649 210.161 137.733C210.311 137.817 210.48 137.861 210.652 137.861C210.824 137.861 210.993 137.817 211.143 137.733C211.293 137.649 211.419 137.527 211.509 137.381C213.714 134.275 216.35 131.498 219.338 129.134C219.522 128.947 219.626 128.695 219.626 128.432C219.626 128.17 219.522 127.918 219.338 127.731Z" fill="white"/>
<path d="M393.102 124.032L401.375 93.2337L379.268 89.0488L380.456 110.188L351.41 140.097C349.872 140.034 348.349 140.42 347.027 141.208C345.705 141.995 344.64 143.151 343.963 144.533C343.286 145.915 343.026 147.464 343.214 148.992C343.403 150.519 344.031 151.959 345.024 153.135C346.016 154.312 347.329 155.174 348.803 155.617C350.277 156.06 351.848 156.064 353.325 155.63C354.801 155.195 356.119 154.34 357.118 153.17C358.117 151.999 358.754 150.563 358.951 149.036L393.102 124.032Z" fill="#FFB6B6"/>
<path d="M403.637 58.7027C411.14 64.6268 401.509 97.7629 401.509 97.7629C400.018 96.1264 398.285 120.313 396.463 119.489C391.282 117.148 381.788 109.077 378.127 109.735C376.034 110.111 378.227 93.7372 378.227 93.7372C378.227 93.7372 378.631 84.3486 379.389 72.2793C379.54 68.8631 380.553 65.5407 382.333 62.6213C384.114 59.7019 386.604 57.2805 389.572 55.5823C389.572 55.5823 396.133 52.7788 403.637 58.7027Z" fill="#3F3D56"/>
<path d="M144.454 127.848L153.549 168.435L95.2686 164.81L111.117 124.949L144.454 127.848Z" fill="#A0616A"/>
<path d="M134.75 315.173L141.296 315.172L144.411 289.921H134.749L134.75 315.173Z" fill="#A0616A"/>
<path d="M132.532 311.943L142.881 311.326V315.76L152.721 322.555C153.207 322.89 153.573 323.373 153.765 323.931C153.958 324.489 153.967 325.094 153.791 325.658C153.615 326.222 153.264 326.715 152.788 327.065C152.313 327.415 151.737 327.604 151.147 327.604H138.826L136.702 323.218L135.873 327.604H131.228L132.532 311.943Z" fill="#2F2E41"/>
<path d="M72.8735 311.916L79.2719 313.303L87.6689 289.286L78.2262 287.238L72.8735 311.916Z" fill="#A0616A"/>
<path d="M71.3922 308.29L81.6369 309.88L80.6969 314.213L88.8717 322.94C89.2755 323.371 89.531 323.92 89.6009 324.506C89.6707 325.093 89.5513 325.686 89.26 326.2C88.9687 326.714 88.5208 327.121 87.9817 327.362C87.4426 327.603 86.8405 327.666 86.2633 327.54L74.2225 324.928L73.0769 320.192L71.3367 324.302L66.7969 323.317L71.3922 308.29Z" fill="#2F2E41"/>
<path d="M155.037 202.375C150.442 227.625 149.294 238.528 149.294 238.528C149.294 238.528 152.74 242.545 150.443 244.842C148.145 247.139 150.443 251.728 150.443 251.728L145.277 307.395L141.119 306.721L131.102 305.11L127.489 304.526L129.786 252.305C129.786 252.305 127.489 247.711 128.638 246.562C129.786 245.413 127.489 238.528 127.489 238.528L124.621 184.009L106.826 243.694C106.826 243.694 108.553 245.991 106.826 247.711C105.107 249.43 101.667 258.042 101.667 258.042L91.0855 295.068L90.1871 298.212L84.6686 297.179L78.6623 296.05L77.5586 295.844L75.595 295.472L74.3308 295.235L73.9009 295.158L71.8218 294.766L72.4507 291.975L72.7779 290.505L81.7296 250.746L81.935 249.828L82.1531 248.859C82.1531 248.859 81.0045 245.991 82.7242 244.265C83.2273 243.739 83.5948 243.098 83.795 242.398C83.9951 241.698 84.0218 240.96 83.8729 240.248C83.8166 240.188 83.7651 240.123 83.7189 240.055C83.5158 239.776 83.3756 239.457 83.3082 239.118C83.1542 238.4 83.2889 237.392 84.4504 236.231C84.7775 235.883 85.052 235.49 85.2654 235.063C87.0108 231.758 87.8899 224.757 87.8899 224.757C87.8899 224.757 89.4428 169.308 94.525 160.838C94.7946 160.395 100.19 151.895 100.472 151.721C106.209 148.282 150.904 153.033 150.904 153.033C150.904 153.033 153.611 160.305 153.733 161.062C154.394 165.317 158.932 180.955 155.037 202.375Z" fill="#2F2E41"/>
<path d="M141.457 68.813C141.457 68.813 142.424 63.7929 133.131 54.5C128.211 52.86 119.687 53.8159 116.731 54.5C103.065 72.5392 105.512 69.3563 101.955 79.4355C101.032 82.0491 100.571 84.5603 100.981 86.6102C102.621 94.8098 105.283 136.901 104.737 139.087C104.19 141.274 100.364 144.007 104.19 144.007C108.017 144.007 157.363 143.143 156.27 141.503C155.176 139.863 141.457 68.813 141.457 68.813Z" fill="#913276"/>
<path d="M200.062 135.511C199.313 135.802 198.509 135.924 197.707 135.87C196.905 135.816 196.125 135.587 195.422 135.198C194.718 134.81 194.108 134.272 193.635 133.623C193.162 132.973 192.836 132.228 192.682 131.439L173.342 128.692L180.067 121.088L197.402 124.862C198.744 124.691 200.102 125.019 201.219 125.782C202.336 126.546 203.134 127.693 203.462 129.005C203.79 130.318 203.625 131.705 202.999 132.904C202.372 134.104 201.327 135.031 200.062 135.511Z" fill="#A0616A"/>
<path d="M118.239 65.5818C119.799 64.5408 121.57 64.0519 122.996 62.6619C128.201 66.4105 128.584 60.307 133.302 69.4889C138.02 78.6708 154.848 100.808 161.942 107.465C169.035 114.121 182.025 117.488 185.791 119.83C187.991 121.151 190.298 122.285 192.688 123.219C191.178 126.161 190.341 129.384 188.453 132.195C177.786 130.888 163.8 126.62 155.935 124.533C148.07 122.446 151.061 124.001 147.826 121.555C144.592 119.108 147.266 120.236 143.501 119.242C139.736 118.249 136.866 113.263 135.731 109.411C133.028 106.649 130.711 103.664 128.037 100.93C124.946 89.1092 121.508 77.3435 118.239 65.5818Z" fill="#913276"/>
<path d="M130.451 47.5034C139.193 47.5034 146.28 40.4165 146.28 31.6744C146.28 22.9323 139.193 15.8455 130.451 15.8455C121.709 15.8455 114.622 22.9323 114.622 31.6744C114.622 40.4165 121.709 47.5034 130.451 47.5034Z" fill="#A0616A"/>
<path d="M141.027 60.6091C140.277 59.5376 134.667 48.9134 133 44.8957C132.828 45.7658 132.72 46.6471 132.676 47.5328L132.659 47.8628L132.331 47.9053C131.839 47.9682 120.197 49.3813 114.138 42.5112C110.548 38.4418 109.734 32.3378 111.715 24.3654C111.355 24.2946 111.01 24.1617 110.695 23.9724C110.171 23.6098 109.732 23.1373 109.41 22.5878C109.087 22.0383 108.889 21.425 108.827 20.7908L108.492 20.8807C97.7132 15.6357 106.999 0.29209 116.845 7.9206C117.708 7.72764 118.609 7.77938 119.444 8.06999C120.25 8.39792 120.953 8.93784 121.477 9.63252C122.001 10.3272 122.327 11.1507 122.421 12.0159C127.508 9.34022 134.241 9.77561 137.723 11.7831C139.18 12.6238 140.018 13.6825 140.166 14.8636C144.279 15.0933 148.702 19.0994 148.702 24.7753V25.1705H148.307C146.652 25.2057 145.038 25.6903 143.638 26.5724C142.238 27.4544 141.104 28.7008 140.358 30.1779C139.346 32.0051 138.846 34.071 138.909 36.1585C138.971 38.246 139.595 40.278 140.715 42.041C141.934 43.911 142.766 46.006 143.162 48.2025C143.558 50.399 143.511 52.6526 143.023 54.8305L141.538 61.3386L141.027 60.6091Z" fill="#2F2E41"/>
<path d="M186.956 327.734C186.956 327.838 186.936 327.94 186.897 328.036C186.857 328.132 186.799 328.218 186.726 328.292C186.653 328.365 186.566 328.423 186.471 328.462C186.375 328.502 186.272 328.522 186.169 328.521H0.78706C0.578319 328.521 0.378125 328.438 0.230523 328.291C0.0829209 328.143 0 327.943 0 327.734C0 327.526 0.0829209 327.325 0.230523 327.178C0.378125 327.03 0.578319 326.947 0.78706 326.947H186.169C186.272 326.947 186.375 326.967 186.471 327.007C186.566 327.046 186.653 327.104 186.726 327.177C186.799 327.25 186.857 327.337 186.897 327.433C186.936 327.528 186.956 327.631 186.956 327.734Z" fill="#CCCCCC"/>
<path d="M439.608 327.734C439.609 327.838 439.589 327.94 439.549 328.036C439.51 328.132 439.452 328.218 439.379 328.292C439.305 328.365 439.219 328.423 439.123 328.462C439.027 328.502 438.925 328.522 438.821 328.521H253.439C253.231 328.521 253.03 328.438 252.883 328.291C252.735 328.143 252.652 327.943 252.652 327.734C252.652 327.526 252.735 327.325 252.883 327.178C253.03 327.03 253.231 326.947 253.439 326.947H438.821C438.925 326.947 439.027 326.967 439.123 327.007C439.219 327.046 439.305 327.104 439.379 327.177C439.452 327.25 439.51 327.337 439.549 327.433C439.589 327.528 439.609 327.631 439.608 327.734Z" fill="#CCCCCC"/>
<path d="M212.496 271.012C216.365 271.012 219.501 267.876 219.501 264.007C219.501 260.139 216.365 257.003 212.496 257.003C208.628 257.003 205.492 260.139 205.492 264.007C205.492 267.876 208.628 271.012 212.496 271.012Z" fill="#E6E6E6"/>
<path d="M259.455 278.287C263.324 278.287 266.46 275.151 266.46 271.283C266.46 267.414 263.324 264.278 259.455 264.278C255.587 264.278 252.451 267.414 252.451 271.283C252.451 275.151 255.587 278.287 259.455 278.287Z" fill="#E6E6E6"/>
<path d="M306.414 269.689C310.283 269.689 313.419 266.553 313.419 262.685C313.419 258.816 310.283 255.68 306.414 255.68C302.546 255.68 299.41 258.816 299.41 262.685C299.41 266.553 302.546 269.689 306.414 269.689Z" fill="#E6E6E6"/>
</g>
<defs>
<clipPath id="clip0_161_369">
<rect width="439.608" height="330" fill="white"/>
</clipPath>
</defs>
</svg>
